<svg width="163" height="155" viewBox="0 0 163 155" fill="none" xmlns="http://www.w3.org/2000/svg">
<path d="M2 44.7642L3.70588 41.8375L21.4118 34.9885L58.5412 21.5514L79.4118 11.278L85.7294 6.63306L102.718 2L111.447 4.67789L113.871 10.0575L122.365 26.7414L132.318 44.7642L151.494 76.0584L162 91.6995V96.3445L159.741 100.741L144.212 107.092L121.153 119.32L109.271 126.643L92.2824 135.198L78.6941 142.047L72.8588 144.737H68.4941L65.5882 139.606L63.4 131.786L58.7882 134.961L46.4118 146.206L39.1294 151.337L33.3059 153.529L28.2118 141.076L26.7529 133.492L25.0588 128.361L21.9059 130.068L19.9647 127.378L13.4118 100.006L9.76471 84.6136L5.64706 71.8993L4.91765 59.1849L4.67059 50.6297L2 44.7642Z" fill="white" stroke="#333333" stroke-width="2" stroke-miterlimit="10"/>
</svg>
