<svg width="103" height="192" viewBox="0 0 103 192" fill="none" xmlns="http://www.w3.org/2000/svg">
<path d="M3.23446 58.1835L2 56.5428L4.19058 43.0764L11.4401 27.6897L23.0707 15.864L38.3927 8.45027L49.1036 6.95538L49.624 6.16535L49.0188 3.62522L50.5801 1H53.8115L55.8205 2.93245V5.12015L54.5134 6.08027L54.9491 6.95538L67.1728 8.94854L80.3768 15.8033L88.6792 23.0348L93.7018 29.5979L100.286 44.6078L101.847 57.3571L101.399 58.1835L94.0407 58.8884L83.2815 59.2895H77.7626L76.7702 59.8243L74.7249 64.8924L71.1425 70.5318L63.6751 75.9281L55.3122 78.2372L55.1186 79.7686L54.8281 117.664L54.5134 148.146L55.4453 149.689L59.9112 150.771L68.2258 154.794L74.7007 161.442L78.7066 170.266L80.401 180.013L78.864 183.878L69.4602 188.679L52.6375 191L34.181 188.982L24.9345 184.656L21.7031 179.709L22.3204 175.212L27.5487 161.6L34.7982 154.016L41.733 150.467L47.4334 149.227L48.8131 148.292L48.9704 98.7893L49.1277 79.9145L48.3532 78.055L40.3412 76.3534L31.8694 68.7695L26.9436 59.0221H17.5398L3.23446 58.1835Z" fill="white" stroke="#333333" stroke-width="2" stroke-miterlimit="10"/>
</svg>
