<svg width="95" height="162" viewBox="0 0 95 162" fill="none" xmlns="http://www.w3.org/2000/svg">
<path d="M4.88585 64.6667L14.6813 50.2669L19.2795 47.3869H30.2407L33.2522 46.2543L32.9608 43.9568H29.8197L29.1073 41.4004L28.5407 5.85388L29.2531 3.42694L36.2476 1H50.6736L58.2509 1.71191L59.53 3.5726L60.3881 42.1123L58.6719 43.2449L55.8223 43.3905V45.3968L57.9595 46.2543L71.8189 47.9532L80.7076 54.7001L89.046 67.0775L92.5594 81.3478L93.9032 102.074V122.784L89.5964 137.863L80.1734 149.432L71.2845 154.803L58.6233 161H54.3165L22.2748 156.696L18.2271 153.201L6.6506 139.465L2.34387 121.716L1 85.9267L4.88585 64.6667Z" fill="white" stroke="#333333" stroke-width="2" stroke-miterlimit="10"/>
</svg>
