<svg width="162" height="139" viewBox="0 0 162 139" fill="none" xmlns="http://www.w3.org/2000/svg">
<path d="M40.5855 16.2572L28.3746 24.1639L17.8217 34.3796L7.92232 50.205L4.30383 65.3655V80.526L1 86.45V89.7504L6.27645 91.3947L9.58029 95.348L17.495 108.538L31.025 121.716L52.7964 132.258L79.1787 137.867L106.565 134.893L129.983 124.678L146.478 110.182L156.377 93.0389L161 72.9458V61.7386L156.05 46.5781L141.201 28.7821L127.344 18.8081L122.395 16.2572L120.422 9.99474L110.196 1H106.892L103.927 4.05869L97.1017 7.6856L84.4551 6.70634L68.6258 8.35052L55.4346 10.6597L48.8391 6.36783H44.8696L42.2314 9.66829L40.5855 16.2572Z" fill="white" stroke="#333333" stroke-width="2" stroke-miterlimit="10"/>
</svg>
