<svg width="163" height="100" viewBox="0 0 163 100" fill="none" xmlns="http://www.w3.org/2000/svg">
<path d="M1 49.9855L24.0005 17.5782H26.8079V14.5087L28.6025 9.15036L33.7107 3.79199L44.4514 2L50.3237 4.04929L53.1399 9.40761L54.9256 15.2805L74.3548 18.3411L98.377 23.6994L100.172 25.9972V29.253L111.419 31.87L114.679 27.2747H117.042L161 42.3294V44.6271L159.721 48.2023L161 51.5202L156.656 69.13L152.827 92.107L150.526 94.4046L147.967 97.7225L142.344 98.9912H138.506L63.8718 77.0433L17.8618 64.7919L6.87228 62.2369L4.32259 60.1965L1 55.6011V49.9855Z" fill="white" stroke="#333333" stroke-width="2" stroke-miterlimit="10"/>
</svg>
