<svg width="167" height="163" viewBox="0 0 167 163" fill="none" xmlns="http://www.w3.org/2000/svg">
<path d="M2 70.3933L3.15416 68.3141L4.76064 60.6698L15.6161 50.7274L19.9989 47.4915V45.1778L31.0726 35.6888L38.2317 26.9033L41.0079 23.9018L51.1615 10.9424L54.1561 9.31657L57.6186 7.70646L62.0014 4.9238L65.4638 2.37568L69.8466 1H73.3404L74.6505 3.14166L77.0992 12.0054L74.8376 18.7899L80.4837 27.6693L92.3374 40.8632L95.7219 47.4602L108.901 58.4031L126.027 70.3933L146.911 87.0732L154.257 88.9648L159.139 86.8857L161.962 84.9942L164.598 85.9477L165.721 88.0113L164.598 91.6067L161.026 93.4827L160.465 96.1246L156.878 103.112L152.557 107.818L147.66 108.959L140.142 114.993L139.565 118.198L127.15 133.471L122.829 137.238L120.568 139.13L116.045 148.932L110.976 155.544L104.004 160.062H100.073L98.3578 161L88.5785 151.011L77.8478 141.584L75.9763 139.505L65.4327 130.829L59.7866 123.278L57.5251 122.528L44.5484 109.334L39.651 106.317L38.7152 103.675L26.6743 94.999L21.4025 89.1524L18.7666 86.8857L8.59752 77.2716L2 70.3933Z" fill="white" stroke="#333333" stroke-width="2" stroke-miterlimit="10"/>
</svg>
