<svg width="134" height="194" viewBox="0 0 134 194" fill="none" xmlns="http://www.w3.org/2000/svg">
<path d="M75.838 53.2803L69.4034 54.3927L65.2852 50.7332L55.6492 54.2798L42.3133 67.5634L24.0388 100.692L22.2371 117.216L21.9636 139.237L28.8327 158.324L28.6718 170.753L24.5375 175.073L16.0919 178.184L10.7351 176.46L7.80729 162.805L2 121.278L10.0112 90.5194L32.1144 66.5961L46.7694 51.0557L53.9762 48.1378L52.2549 47.6703H47.2359L40.2381 45.2683L24.9558 39.5776L20.5641 26.6971L18.328 13.3974L21.0788 8.38385L26.7736 2.8544L40.3025 2L51.5954 8.04531L57.1132 13.2201L64.3522 22.3767L71.7682 29.1475L74.0042 27.3903L78.4763 27.5676L81.5006 30.5822L83.8975 33.9353L91.0722 29.9857L101.062 26.6971L115.894 26.0039L126.399 29.8084L131.225 35.4991L132.946 41.5605L131.225 48.6375L124.999 58.6163L115.605 62.1145L100.097 61.244L88.3053 53.2965L87.4527 55.0214L89.6888 67.6279L87.9675 86.457L86.0693 94.4045L77.3342 109.59L78.1385 128.613L74.0042 146.749L70.3847 172.832L66.4112 188.212L62.9687 192L58.77 190.452L48.4906 181.812L44.0024 172.655L45.0481 160.387L55.3919 133.449L59.5905 110.783L75.1142 87.6338L80.7928 68.7886L79.8758 59.8093L79.361 51.2169L75.838 53.2803Z" fill="white" stroke="#333333" stroke-width="2" stroke-miterlimit="10"/>
</svg>
