<svg width="73" height="162" viewBox="0 0 73 162" fill="none" xmlns="http://www.w3.org/2000/svg">
<path d="M16.267 4.80844L19.8454 2.17008L35.9368 1L53.8291 2.90422L55.326 7.14857V44.5905L59.4891 48.1006L69.0316 58.6312L70.2245 66.7069L71.1133 69.0012V97.6791L71.8851 122.457L70.552 124.499L71.1133 133.997L70.739 153.383L63.7225 158.591L41.6904 161L19.4713 159.532L5.81228 154.117L4.29204 148.909V124.132L3.14602 122.273V85.9555L2 69.7353L2.95887 66.7069L3.14602 61.3614L7.30918 53.7215L16.6179 45.7147L17.8808 44.5905L16.7114 16.3484L16.267 4.80844Z" fill="white" stroke="#333333" stroke-width="2" stroke-miterlimit="10"/>
</svg>
