<svg width="164" height="150" viewBox="0 0 164 150" fill="none" xmlns="http://www.w3.org/2000/svg">
<path d="M68.3513 59.3862L51.5364 49.769L47.1971 45.2202L44.1192 43.0408L38.1526 36.3253L29.474 32.0425H22.7884L16.456 32.8788L7.96658 36.3253L3.62726 43.5857L2 53.3929L3.08485 57.7516L5.79692 64.6572L19.8997 80.8252L24.239 83.7268L41.9496 103.164L50.6282 117.862L62.0189 127.124L74.6711 132.573L105.412 141.48L127.109 147.474L136.153 148.918L138.323 146.017L136.506 142.025L118.973 115.15L101.792 89.3527H103.419L110.66 92.267L145.008 103.519L156.942 107.333L160.915 106.788L162 104.608L156.399 94.9912L137.591 67.3815L128.913 53.7603L120.776 45.9551L116.979 41.2289L107.216 34.3233L105.046 32.0425L101.615 27.7851L96.9101 25.6057L94.7404 26.6954L80.0952 15.2537L69.6127 8.53815L58.9536 3.08969L48.6477 2L39.9691 3.81193L34.3557 8.53815L34.0025 15.0763L35.0874 21.0696L39.0609 29.4197L50.0858 39.0495L71.24 57.5743L68.3513 59.3862Z" fill="white" stroke="#333333" stroke-width="2" stroke-miterlimit="10"/>
</svg>
