<svg width="163" height="141" viewBox="0 0 163 141" fill="none" xmlns="http://www.w3.org/2000/svg">
<path d="M22.7634 23.0428L16.327 41.402L13.8729 45.6873V54.566L5.59957 91.9155L1 110.95V113.65L9.28804 116.101H14.7987L14.1815 127.416L15.1073 138.437H19.7068L31.9625 139.978L61.3821 136.603L86.4813 137.527L96.6356 136.603L115.328 139.978H137.4L139.854 136.911V131.701L148.744 130.483L157.018 129.867L161 125.581L156.4 78.135L155.798 45.0856L157.326 31.9215L153.652 27.9444L152.418 24.569L144.453 20.2838L133.109 22.4264L122.073 23.9527L106.452 20.2838L81 7.42792L67.8185 1H54.0345L53.4174 4.6689L55.5628 12.946L55.2542 28.8543L53.4174 31.6133L37.4879 25.4936L28.5974 21.2083L22.7634 23.0428Z" fill="white" stroke="#333333" stroke-width="2" stroke-miterlimit="10"/>
</svg>
