<svg width="249" height="245" viewBox="0 0 249 245" fill="none" xmlns="http://www.w3.org/2000/svg">
<path d="M62.6153 41.3626L43.9174 53.4697L27.7583 69.1126L12.5998 93.3452L7.059 116.56V139.774L2 148.845V153.899L10.0796 156.417L15.1386 162.47L27.2579 182.667L47.9757 202.846L81.3132 218.989L121.711 227.578L163.647 223.024L199.505 207.381L224.763 185.185L239.921 158.935L247 128.167V111.006L239.421 87.7915L216.683 60.5413L195.465 45.2687L187.886 41.3626L184.865 31.7732L169.206 18H164.147L159.607 22.6836L149.156 28.2373L129.791 26.7378L105.552 29.2555L85.353 32.7913L75.2535 26.2195H69.1753L65.1355 31.2733L62.6153 41.3626Z" fill="#746D69" stroke="#333333" stroke-width="4" stroke-miterlimit="10"/>
</svg>
