<svg width="251" height="245" viewBox="0 0 251 245" fill="none" xmlns="http://www.w3.org/2000/svg">
<path d="M3 106.843L4.72714 103.732L7.13115 92.2928L23.3758 77.4145L29.9344 72.5722V69.1098L46.5057 54.91L57.2188 41.7629L61.3733 37.2714L76.5677 17.8783L81.0489 15.4453L86.2305 13.0359L92.789 8.87177L97.9704 5.05863L104.529 3H109.757L111.718 6.20489L115.382 19.4691L111.998 29.6217L120.447 42.9092L138.185 62.6532L143.25 72.5253L162.972 88.9007L188.6 106.843L219.852 131.804L230.845 134.635L238.15 131.523L242.375 128.693L246.319 130.12L248 133.208L246.319 138.588L240.975 141.396L240.134 145.349L234.766 155.806L228.301 162.847L220.972 164.555L209.722 173.585L208.859 178.381L190.28 201.236L183.815 206.874L180.431 209.704L173.662 224.372L166.077 234.268L155.644 241.028H149.762L147.195 242.432L132.56 227.483L116.502 213.377L113.702 210.266L97.9238 197.283L89.4747 185.983L86.0904 184.861L66.6715 165.117L59.3427 160.601L57.9424 156.648L39.9238 143.665L32.0349 134.916L28.0904 131.523L12.8728 117.137L3 106.843Z" fill="#746D69" stroke="#333333" stroke-width="4" stroke-miterlimit="10"/>
</svg>
