<svg width="250" height="245" viewBox="0 0 250 245" fill="none" xmlns="http://www.w3.org/2000/svg">
<path d="M3 72.4827L5.61213 68.0012L32.7243 57.5137L89.5787 36.9381L121.537 21.2069L131.211 14.0944L157.224 7L170.591 11.1005L174.302 19.3381L187.308 44.8853L202.549 72.4827L231.913 120.402L248 144.352V151.465L244.541 158.196L220.762 167.922L185.453 186.647L167.258 197.86L141.245 210.96L120.438 221.448L111.503 225.566H104.819L100.369 217.71L97.0188 205.735L89.957 210.597L71.0055 227.816L59.8544 235.673L50.9371 239.029L43.1368 219.96L40.9029 208.347L38.3088 200.491L33.4809 203.104L30.5085 198.985L20.4743 157.072L14.8897 133.502L8.58456 114.033L7.46765 94.5643L7.08934 81.4642L3 72.4827Z" fill="#746D69" stroke="#333333" stroke-width="4" stroke-miterlimit="10"/>
</svg>
