<svg width="250" height="250" viewBox="0 0 250 250" fill="none" xmlns="http://www.w3.org/2000/svg">
<path d="M50.7122 109.288L52.632 139.147L51.6722 148.976L47.522 157.727L35.6645 171.79L24.8518 184.603L21.238 190.796V195.484L24.8518 200.598L48.7925 219.377L75.9517 238.383L83.1509 240.514H89.729L124.087 224.945L146.984 214.689L149.101 210.2V204.66L141.252 194.631L124.709 173.295L116.86 162.187L113.274 150.681L110.734 135.311L109.887 115.481L109.012 100.736L121.744 95.8497L134.053 86.247L139.559 77.9228L140.631 69.5987L139.982 62.553L103.732 22.2107L93.9638 13.2615L85.1554 9H75.1048L62.598 10.7046L55.3706 14.9661L43.2872 26.4722L24.8518 50.5923L9.15474 68.5191L3.8471 75.5648L3 81.5309V90.9347L5.54095 94.7701L19.3182 103.719L36.0881 107.782L50.7122 109.288Z" fill="#A5B9DC" stroke="#333333" stroke-width="4" stroke-miterlimit="10"/>
<path d="M164.393 218.347L163.415 225.246L165.344 231.636L170.878 237.715L178.983 240.514L186.781 238.874L190.023 235.085L195.082 235.764L204.64 239.524L216.826 240.514H219.901L223.478 236.895V233.785L224.456 230.674L235.329 224.596L241.673 222.786L243.602 222.447L247.514 217.188V212.749L244.105 206.671L243.294 204.211L245.083 200.931L245.39 196.492L242.148 189.763L235.021 185.494L229.487 182.215L225.742 175.146L221.522 172.036L213.416 169.237L202.376 168.587L194.579 171.867L189.38 176.616L184.517 182.384L180.632 183.685L171.52 190.414L167.468 194.683L166.993 197.171L166.49 202.741L164.533 204.55L162.102 208.339V214.078L164.393 218.347Z" fill="#A5B9DC" stroke="#333333" stroke-width="4" stroke-miterlimit="10"/>
</svg>
