<svg width="250" height="250" viewBox="0 0 250 250" fill="none" xmlns="http://www.w3.org/2000/svg">
<path d="M91.2573 111.449H84.8805L69.4136 101.368L60.0161 94.8077L58.1981 91.457L55.1496 89.6267L51.5136 84.5865H48.6328L46.9547 89.9083L42.4238 84.5865H40.6057L39.5429 92.358L33.6135 93.2872L32.2431 94.9485L35.5994 100.158L29.0546 103.959V105.958L35.907 109.478H38.9277L39.8505 111.449L51.6815 121.529L67.9034 133.44L75.6508 137.861L76.5178 144.647L74.9516 156.276L69.8332 170.383L64.0436 174.635L58.0583 184.039L53.6113 186.517L43.3746 183.392L35.5714 182.716L31.1242 183.167L24.9152 180.238L23.7406 182.519L25.4746 186.517L19.5453 187.531L17 189.981L17.5314 191.614L25.055 195.162V200.005L29.6978 213.436L40.6337 221.827L53.2197 224.812L59.8763 222.193L60.995 224.812L64.1276 233.4L69.4976 240.467L77.8323 244.55L86.1669 247H92.0965L100.04 241.199L105.41 233.4L111.143 230.584L120.037 222.559L129.295 206.903L133.015 205.411L137.07 212.507L151.698 222.756L171.5 231.513H175.583L180.953 225.375L186.883 218.645L185.96 216.421L176.702 212.141L165.207 210.085L155.222 208.227L144.678 204.313L140.231 200.765L147.251 193.303L155.39 192.008L166.102 197.865L191.498 204.623L214.74 206.791L218.711 206.481V203.384L208.307 201.554L206.153 198.766H216.866L222.991 199.695L227.27 199.385V195.387L218.404 189.84V184.603L221.145 180.604L227.27 177.845L230.626 175.367L232.78 170.158L226.962 163.681L218.096 163.372L210.153 157.205L215.047 143.042L214.124 137.213L202.489 141.521L199.133 143.042L195.777 148.899L190.267 158.134L183.527 159.993H177.178L176.674 157.43L178.38 151.63L178.213 149.772L181.261 149.94L184.114 148.223L181.065 142.253L189.036 137.326V135.27L184.813 132.539L179.555 131.863L179.387 125.894L177.346 123.697L174.465 124.88L169.738 129.836L154.495 133.412L148.426 133.074L153.488 121.135L161.263 112.603L165.179 102.889L171.081 98.9751L176.674 90.9783L174.297 84.5865L173.122 81.2639L179.919 71.0708L193.707 40.745L191.861 38.436L187.051 39.8158L175.555 45.8415L160.145 53.4722L164.732 42.6034L166.354 33.1142L169.095 25.0048L166.801 23.3999L162.438 25.2583L150.495 32.185L142.217 39.14L145.657 29.3975L150.719 20.387L151.167 14.5865L149.349 11.461L139.224 15.8818L128.652 23.2872L123.366 26.3001L127.281 11.461V5.71683L124.876 2H121.52L117.856 8.22287L109.353 18.6412L107.731 34.86L102.445 53.3596L98.0817 55.6685L97.6063 60.5398L94.8654 67.4666L94.6416 74.1963L91.1735 74.8721L89.3274 80.222L87.2578 85.2904L90.0267 87.1488L91.6489 89.683V95.2583L92.0965 102.438L91.2573 111.449Z" fill="#A5B9DC" stroke="#333333" stroke-width="4" stroke-miterlimit="10"/>
</svg>
