<svg width="250" height="251" viewBox="0 0 250 251" fill="none" xmlns="http://www.w3.org/2000/svg">
<path d="M136.212 69.1246L127.915 70.559L122.605 65.8402L110.179 70.4135L92.983 87.5423L69.4184 130.26L67.0952 151.567L66.7425 179.963L75.6 204.575L75.3926 220.602L70.0615 226.173L59.1712 230.185L52.2637 227.961L48.4883 210.354L41 156.806L51.3302 117.143L79.8317 86.295L98.729 66.256L108.022 62.4935L105.802 61.8906H99.3305L90.3071 58.7933L70.6008 51.4554L64.9379 34.8463L62.0546 17.6967L65.6017 11.2318L72.9449 4.10173L90.3901 3L104.952 10.7953L112.067 17.468L121.402 29.2752L130.964 38.0059L133.848 35.7401L139.614 35.9688L143.514 39.856L146.605 44.1798L155.856 39.0869L168.738 34.8463L187.863 33.9524L201.409 38.8582L207.632 46.1962L209.851 54.0122L207.632 63.1379L199.604 76.0053L187.49 80.5161L167.493 79.3936L152.288 69.1454L151.189 71.3697L154.072 87.6254L151.853 111.905L149.405 122.153L138.141 141.735L139.179 166.264L133.848 189.65L129.18 223.284L124.057 243.115L119.617 248L114.203 246.004L100.948 234.862L95.161 223.055L96.5093 207.236L109.847 172.5L115.261 143.273L135.279 113.423L142.601 89.1221L141.419 77.5435L140.755 66.4639L136.212 69.1246Z" fill="#BDB0CA" stroke="#333333" stroke-width="4" stroke-miterlimit="10"/>
</svg>
