<svg width="250" height="250" viewBox="0 0 250 250" fill="none" xmlns="http://www.w3.org/2000/svg">
<path d="M97.9698 76.569L96.7455 74.5287L95.5497 50.9943H81.8829L79.4627 50.3908L78.5801 7.80457L80.3739 5.44831L109.814 3.92533L139.255 2L145.604 2.51722L173.82 7.60348L175.045 9.21267L175.757 46.9426L174.931 49.6724L172.824 50.477L162.374 50.592L161.862 53.0345L161.663 74.7299L162.773 75.7356L170.261 76.569L206.791 87.6322L208.5 90.8793V155.075L209.439 200.937L207.93 202.862L166.076 239.73L163.058 241.828L153.975 247H149.619L64.6286 231.713L54.407 227.316L44.1854 222.92L42.8472 218.724L41.9077 156.626L40.7687 108.466L40 98.1494L41.3382 94.5288L60.2723 87.0575L86.0114 77.8908L96.4892 77.2012L97.9698 76.569Z" fill="#A5B9DC" stroke="#333333" stroke-width="4" stroke-miterlimit="10"/>
</svg>
