<svg width="245" height="249" viewBox="0 0 245 249" fill="none" xmlns="http://www.w3.org/2000/svg">
<path d="M107.705 49.7563L105.802 49.08L104.766 21.8014L103.937 7.11004L104.408 4.21684L106.367 3.29624L115.56 2L134.87 2.56358L147.679 3.76592L150.75 5.06222L151.673 7.27911L149.262 31.533L147.774 49.7563L146.116 50.1508L146.078 50.752L147.849 52.2174L148.772 81.2619L150.11 105.647L154.819 148.744L162.75 199.187L170.116 227.349V233.511L164.219 239.654L144.534 245.816L120.986 247L93.35 242.604L80.1256 235.859L76 229.697V225.884L80.7096 212.676L87.7739 183.068L94.5368 149.045L100.998 102.416L103.956 75.2689L105.293 52.2925L105.896 50.8271L107.667 50.3011L107.705 49.7563Z" fill="#536858" stroke="#333333" stroke-width="4" stroke-miterlimit="10"/>
</svg>
