<svg width="245" height="249" viewBox="0 0 245 249" fill="none" xmlns="http://www.w3.org/2000/svg">
<path d="M57.9502 99.4896L72.9495 77.4399L79.9904 73.0299H96.7748L101.386 71.2956L100.94 67.7776H96.1302L95.0393 63.8631L94.1717 9.4325L95.2625 5.71625L105.973 2H128.063L139.665 3.09011L141.624 5.93929L142.938 64.9532L140.31 66.6875L135.947 66.9105V69.9826L139.219 71.2956L160.441 73.8971L174.052 84.2282L186.82 103.181L192.2 125.033L194.258 156.769V188.481L187.663 211.572L173.234 229.286L159.623 237.511L140.236 247H133.641L84.5771 240.41L78.379 235.058L60.6525 214.024L54.0578 186.846L52 132.044L57.9502 99.4896Z" fill="#746D69" stroke="#333333" stroke-width="4" stroke-miterlimit="10"/>
</svg>
