<svg width="250" height="250" viewBox="0 0 250 250" fill="none" xmlns="http://www.w3.org/2000/svg">
<path d="M35.3252 52.753L25.4695 80.8655L21.7116 87.4274V101.023L9.04309 158.214L2 187.361V191.495L14.6911 195.248H23.1293L22.1841 212.574L23.6018 229.451H30.6449L49.4114 231.81L94.46 226.642L132.893 228.057L148.442 226.642L177.064 231.81H210.862L214.62 227.114V219.136L228.233 217.271L240.902 216.327L247 209.765L239.957 137.113L239.034 86.506L241.375 66.3486L235.749 60.2587L233.859 55.0901L221.663 48.5283L204.292 51.8092L187.393 54.1463L163.473 48.5283L124.5 28.8428L104.316 19H83.2091L82.2641 24.618L85.5493 37.2922L85.0768 61.6519L82.2641 65.8767L57.8721 56.5058L44.2584 49.944L35.3252 52.753Z" fill="#BDB0CA" stroke="#333333" stroke-width="4" stroke-miterlimit="10"/>
</svg>
