<svg width="251" height="250" viewBox="0 0 251 250" fill="none" xmlns="http://www.w3.org/2000/svg">
<path d="M104.6 100.873L78.8526 86.1463L72.2081 79.1809L67.495 75.8438L58.3587 65.5606L45.0695 59.0026H34.8322L25.1357 60.2832L12.1363 65.5606L5.49174 76.678L3 91.6954L4.66118 98.3697L8.81404 108.944L30.4089 133.701L37.0535 138.144L64.1728 167.907L77.4619 190.414L94.904 204.597L114.278 212.94L161.35 226.579L194.573 235.757L208.422 237.969L211.744 233.525L208.963 227.414L182.114 186.262L155.806 146.759H158.298L169.385 151.221L221.982 168.45L240.254 174.291L246.339 173.456L248 170.119L239.424 155.393L210.624 113.115L197.335 92.258L184.876 80.3063L179.062 73.0692L164.112 62.495L160.79 59.0026L155.536 52.4835L148.331 49.1463L145.009 50.8149L122.583 33.2947L106.532 23.0115L90.2102 14.6686L74.4294 13L61.1402 15.7745L52.5447 23.0115L52.0038 33.0231L53.665 42.2003L59.7494 54.9864L76.6313 69.732L109.024 98.0981L104.6 100.873Z" fill="#BDB0CA" stroke="#333333" stroke-width="4" stroke-miterlimit="10"/>
</svg>
