<svg width="251" height="245" viewBox="0 0 251 245" fill="none" xmlns="http://www.w3.org/2000/svg">
<path d="M3 93.9103L4.15099 83.1839L12.0586 73.022L18.6208 69.1891L24.0171 67.0794L31.7304 57.6901L32.8963 55.0159L31.9246 51.7474L32.8963 50.0241H35.5869L43.8831 53.7531H50.6397L55.6474 57.3038L60.5503 52.1337L55.6474 50.0241L53.151 46.7705L54.885 43.8884L58.9359 45.0472L62.4039 47.7213L66.4549 43.8884L73.0022 27.0262L74.7511 23H77.8753L88.1147 27.8581L95.1702 31.6763L100.985 31.0968L105.051 31.8991L108.115 35.2418H111.987L114.02 36.3561L114.633 41.021L120.343 42.8484L131.554 47.4094L132.271 46.2951L126.771 37.4703L119.326 32.0031L115.858 29.9677L115.963 27.6501L118.609 26.6399L125.844 26.2388L134.2 28.5564L137.967 30.9928L137.772 32.3002L136.352 34.2762L137.354 35.3755L139.432 35.6281L141.36 33.4145L142.227 33.5185L159.223 46.0871L179.283 61.4339L186.638 65.9355L191.421 67.1686L197.281 67.2577L203.634 66.4257L206.205 65.8612L207.356 66.0989L215.353 77.5236L220.615 75.0277L224.965 74.6414L234.831 76.9293L240.376 76.7362L244.188 74.7008L245.967 70.7044L245.04 66.9754L242.469 63.9744L238.329 61.7459L232.065 60.6317L231.153 59.7106L231.811 58.4626L233.515 58.0169L241.483 60.1711L246.296 63.9744L248 68.877L247.148 74.7751L242.35 78.5635L236.086 79.5441L229.973 78.4298L223.978 76.9888L220.675 77.3899L216.669 79.7372L222.708 89.1265L224.023 91.9641L223.829 93.2715L219.329 97.565L215.039 104.592L213.784 111.233L217.177 132.285L222.095 159.977L222.977 168.253L220.301 168.743L218.612 169.723L218.462 171.833L219.733 173.72L223.201 173.438L223.754 174.983L222.842 183.258L220.376 190.344L216.699 195.96L215.293 196.51H214.441L213.53 194.474L211.347 180.658L209.852 177.79L201.317 163.335L199.269 163.692L174.38 173.72L169.313 176.988L160.957 180.509L150.822 185.293L140.702 189.067L138.161 191.34L133.602 192.602L117.398 201.412L94.0939 212.228L79.1458 221.29L76.1113 222.806H71.8063L57.1123 195.618L47.7398 178.504L30.5195 152.326L21.1471 135.464L8.74008 115.571L5.70561 106.509L6.21384 101.22L3 93.9103Z" fill="#536858" stroke="#333333" stroke-width="4" stroke-miterlimit="10"/>
</svg>
