<svg width="250" height="245" viewBox="0 0 250 245" fill="none" xmlns="http://www.w3.org/2000/svg">
<path d="M130.774 49.7158L103.865 39.6787L80.8883 33H57.9112L47.8227 35.2326L31.5776 44.9835L18.4012 61.7184L7.20033 81.7926L3 105.473L4.97549 116.083L10.2691 129.46L19.5328 140.89L33.2462 153.159L59.0427 170.161L86.2202 184.378L89.0205 188.289L92.6646 189.682H94.3716L98.0732 191.8L100.912 196.323L114.664 206.837L120.897 210.901L130.774 213.687H142.877L172.586 207.696L185.302 201.055L203.177 194.834L219.979 186.686L222.99 183.691V178.977L235.917 158.827L243.013 142.97V139.516L245.104 133.409L246.37 124.441L248 122.704V114.652L246.025 106.008L246.485 99.6725L242.093 82.8612L240.367 78.5869L236.416 76.4116L227.037 68.7978L221.034 63.8556L215.241 62.3481L210.6 60.2872L205.747 60.5162L197.174 56.261L192.149 46.9489L190.289 45.7468L186.74 45.0216L179.97 41.7968L169.038 40.2702L153.924 42.3311L143.797 44.7163L135.569 48.5709L132.405 50.0211L130.774 49.7158Z" fill="#536858" stroke="#333333" stroke-width="4" stroke-miterlimit="10"/>
</svg>
