<svg width="251" height="250" viewBox="0 0 251 250" fill="none" xmlns="http://www.w3.org/2000/svg">
<path d="M82.4844 94.5967L77.137 89.7117L71.7895 84.8069L77.137 76.0059L138.869 53.519H147.696L151.982 47.6451L170.953 42.2657L192.815 47.1705L204.001 50.0975L210.312 46.676L207.619 42.2657H203.274L202.979 37.2422L205.004 32.0012L226.453 25L239.153 30.1026L248 42.4832V59.7884L246.408 68.2136L227.161 85.9935L209.172 101.242L193.7 105.039L190.22 108.223L192.107 112.357L188.647 118.705L140.658 155.867L99.2935 195.244L84.1358 208.257L50.0458 222.24L9.95956 224.455L3 218.423L7.42345 212.707L24.1539 201.909L43.1059 202.225L52.5819 195.877L58.8927 189.845H69.3124L80.3612 187.946L91.7245 174.596L101.515 159.664L107.511 152.05L101.83 148.866L96.4625 145.385L93.9264 148.866L96.4625 160.001L91.0954 165.4L82.2485 162.532L75.9377 160.633L74.0504 164.114L75.3086 178.413L70.5706 179.679L67.7199 162.216L72.1434 152.366L78.4542 151.734L86.9865 154.265L87.6156 151.101V143.15L93.2973 138.404L99.6081 137.751L104.346 139.669L106.233 133.321L107.197 127.922L114.766 124.718L122.984 126.32L125.5 122.522V114.572L130.238 111.091L138.77 111.724L140.972 106.325L142.86 100.925L149.819 98.6906L153.908 98.3742L165.272 88.2086L159.275 72.0109L144.452 78.3594L140.343 81.5436L125.5 88.8415L110.971 102.191L106.233 103.141L100.237 92.6585L82.4844 94.5967Z" fill="#B9B5AF" stroke="#333333" stroke-width="4" stroke-miterlimit="10"/>
</svg>
