<svg width="250" height="250" viewBox="0 0 250 250" fill="none" xmlns="http://www.w3.org/2000/svg">
<path d="M112.858 11.8769V5.41183L115.717 2H139.085L140.677 5.0098V11.8769L135.891 13.0287V19.0374L138.685 20.2435L140.677 24.6441V31.859L138.49 35.0752L139.486 74.5503L140.677 80.9611L155.264 87.3719L162.854 93.9891L166.244 105.615L159.151 208.209L157.711 224.519L149.394 238.297L133.141 247H126.275L106.762 239.753L90.8654 228.148V223.802L84 113.221L86.5231 99.4437L97.0052 87.4805L110.736 82.0368L113.27 76.2345L114.353 33.8148L112.902 29.8271L113.27 19.6785L117.244 17.8639V14.2457L112.858 11.8769Z" fill="#B9B5AF" stroke="#333333" stroke-width="4" stroke-miterlimit="10"/>
</svg>
