<svg width="250" height="269" viewBox="0 0 250 269" fill="none" xmlns="http://www.w3.org/2000/svg">
<path d="M46.6024 139.285L33.4929 149.401V153.726V157.336L24.747 166.361V171.42L49.524 208.612L79.7648 242.928L97.9775 260.622H104.902L109.645 258.816L117.291 260.622L122.755 262.427L126.17 266.037H129.679L170.127 232.454L196.346 207.898L216.399 193.1L243.718 175.03L247 168.543V159.141L237.154 143.629L223.684 134.96L195.625 105.345L192.343 95.2293L186.879 83.6842L181.055 73.5681L177.772 59.1273L173.769 55.141L167.566 52.2642L164.511 43.8592L174.016 30.979L173.447 23.2698L166.522 17.8357L156.714 18.9827L143.453 26.6919L144.724 29.362L155.993 22.2544L166.351 22.01L170.316 28.591L162.254 39.8729L161.229 43.4267L159.18 44.5737L151.383 36.0747L139.488 29.362L134.631 24.0407L131.178 7.94522L128.863 3L125.031 3.75212L127.46 9.58109L129.262 20.863L124.14 19.6032L123.381 21.2578L123.76 24.0407L129.509 25.9398L130.78 26.1842L132.07 31.6372L137.951 42.919L144.724 49.895L149.713 54.2009L150.491 57.7547L143.453 52.6778L138.197 50.4027L121.066 40.5122L111.087 34.3072L106.496 32.7841L104.58 34.5516V36.5824L113.402 41.0199L112.111 42.0353L104.314 39.1208L100.216 39.2524L99.5902 42.543L105.339 43.4267L112.377 46.2284L112.813 47.4694L105.813 46.3036L89.3265 46.0403L88.9281 48.2591L91.4324 49.4437L111.106 51.0044L123.513 53.0915L137.23 58.3376L136.964 60.0299L126.928 56.7581L115.052 53.4864L100.14 52.7154L87.6191 53.618L80.8842 54.671L80.4857 56.6265L81.7948 58.206L83.9196 59.5034L82.1932 60.2931L76.6534 59.635H73.4852L72.1761 61.6093L67.5471 60.9512L65.4412 62.9067L65.574 65.652L63.2026 65.1255L52.5025 60.9512L48.4236 61.3461L47.494 63.6965L48.803 65.7836L46.4316 66.1785L37.9892 59.1085L33.6447 60.8196L34.5553 62.7751L43.529 68.7921L54.874 75.7305L61.8745 79.2655L60.5655 80.4312L57.2644 79.9048L56.6004 81.8791L54.4945 82.4056L50.1311 81.3526L48.803 82.9133L49.2015 85.0192L48.2908 86.9747L39.9623 79.1338L33.1134 77.1595L25.3161 74.4142L20.5732 71.669L18.714 73.5117L19.378 75.9937L23.8743 79.5287L36.0162 83.5714L39.9623 85.2825L41.6887 87.5012L39.1844 88.4226L28.086 86.5799L19.5108 85.5457L16.4754 84.6243L15.8113 86.0534L17.6706 89.3251L24.1399 90.1149L41.2903 92.4652L42.7321 94.0447H34.3277L23.5518 94.4208L14.73 95.3985L8.07095 94.2327L6.11682 95.5866V99.6668L17.6706 100.25L32.3547 98.313L44.7052 99.6668L43.3202 101.604L39.4121 102.976L39.2224 105.101V108.598L33.9293 112.867L31.1784 113.45L32.5633 116.947L35.8834 117.135L41.9543 112.679L47.8355 110.347L50.3777 110.535L49.9793 112.679L47.8355 115.198L39.8105 117.53L30.2108 120.049L19.0555 119.072L13.9521 118.884V121.986L17.4808 124.13L28.2567 124.506L38.8239 123.152L39.0137 125.295L29.4331 130.636L24.1399 132.083L9.24719 136.164L2 140.62V142.952L8.07095 143.346L21.5978 138.683L30.6093 137.123L42.3528 129.752L48.0253 128.398V130.636L46.2609 133.042L46.4696 137.123L46.6024 139.285Z" fill="#A5B9DC" stroke="#333333" stroke-width="4" stroke-miterlimit="10"/>
</svg>
