<svg width="250" height="245" viewBox="0 0 250 245" fill="none" xmlns="http://www.w3.org/2000/svg">
<path d="M2 122.478L37.2196 72.8541H41.5183V68.1539L44.2663 59.949L52.0883 51.744L68.535 49L77.527 52.138L81.8393 60.3429L84.5736 69.3357L114.325 74.0224L151.109 82.2273L153.856 85.7457V90.7311L171.079 94.7385L176.071 87.7018H179.69L247 110.754V114.273L245.041 119.747L247 124.828L240.348 151.793L234.485 186.976L230.961 190.495L227.044 195.575L218.433 197.518H212.556L98.2724 163.91L27.8196 145.15L10.9919 141.238L7.08772 138.113L2 131.077V122.478Z" fill="#746D69" stroke="#333333" stroke-width="4" stroke-miterlimit="10"/>
</svg>
