<svg width="250" height="250" viewBox="0 0 250 250" fill="none" xmlns="http://www.w3.org/2000/svg">
<path d="M94.905 47.9031H91.5086L87.1222 43.8942V36.6874L89.9094 35.0808L94.905 19.2442L105.673 7.41656L119.639 2H132.22L146.384 8.80895L152.979 16.4289L157.365 24.9515L158.766 36.0754L161.554 37.2842V44.7052L159.36 46.9085L157.167 47.9031H153.573V73.5782L151.776 75.1695L150.984 78.5816L146.582 82.1927L146.186 87.8082H151.578L153.177 90.8071L154.365 93.0258L162.346 94.6171H165.544L170.539 99.238L176.921 112.871L180.119 124.102L182.511 125.495L188.694 144.345L187.293 147.344L188.694 150.757H191.085L200.863 156.173L204.458 166.593L202.661 173.218L200.467 177.426L196.873 179.033L194.878 175.422L191.481 164.589L187.095 165.201L182.313 167.404L185.1 179.033L183.501 183.241L176.921 181.435L173.525 176.217L171.133 167.205L171.727 163.196L175.322 156.372L173.723 150.757L170.128 151.353L166.945 142.739L165.742 157.78L166.747 170.204L167.539 194.257L166.138 199.674L166.747 221.126L166.336 230.949L166.945 233.153V247H151.578L125.549 246.189L123.736 245.852L123.843 231.791L124.65 224.905L125.549 204.953L130.925 204.203V200.301L122.716 200.898L117.933 200.148L116.745 204.494L121.97 205.397L122.411 211.701L121.97 226.711L123.158 230.307L121.97 245.761L119.868 247L79.4004 245.47V231.653L80.4361 228.363L81.0453 203.3L81.487 197.302L80.893 195.191L81.9439 169.531L81.1824 157.382L81.487 145.08L80.7407 143.58L80.1467 149.135L76.3695 149.517L74.3287 154.903V156.188L78.0297 163.885L76.5066 171.183L74.3287 177.992L70.5058 180.288L66.0433 180.165L65.0229 177.855L69.6072 165.032L66.8048 163.885L60.804 161.834L58.2453 162.217L55.7018 169.393L53.0212 177.09L49.8381 175.422L46 170.679V165.553L50.6605 154.658L59.083 150.037H61.002L62.9058 144.912L61.6417 142.861L62.9058 136.71L66.9876 124.5L69.4245 122.985L73.5062 110.545L78.7303 100.294L84.2285 94.6477H87.0309L88.4321 93.3777L95.1944 92.475L95.8341 88.5579L99.2609 86.3851H103.114L103.876 80.8768L99.2609 79.7445L96.6261 73.823L95.2706 71.7727L94.905 47.9031Z" fill="#B9B5AF" stroke="#333333" stroke-width="4" stroke-miterlimit="10"/>
</svg>
