<svg width="250" height="250" viewBox="0 0 250 250" fill="none" xmlns="http://www.w3.org/2000/svg">
<path d="M94.2072 113.448L93.246 157.536L92.4051 159.327L89.5217 157.415L86.1779 158.12L83.5349 161.502L84.4959 164.984L87.7197 167.279H91.3239L92.8856 164.401L93.9269 164.521L93.0859 177.325L78.7293 181.271L66.0947 187.834L60.6685 193.551L59.1467 198.302L58.4659 219.098L59.1467 223.144L63.5918 229.003L72.2018 235.968L93.1459 243.638L121.739 247L151.173 244.806L169.975 239.028L182.549 230.633L187.395 223.788L188.015 220.044V198.564L184.952 192.162L177.343 185.901L166.891 181.392L156.299 178.754L156.719 147.993L157.741 115.119L168.873 114.938L191.66 113.448L209.12 111.153L213.745 109.422V107.71L205.015 74.1311L201.591 59.6767L197.466 45.3833L189.417 29.8821L180.687 19.5546L166.991 10.7773L156.379 6.30813L136.096 3.02669L116.813 2L94.5476 5.9659L80.3511 12.5086L68.1772 21.9704L58.4659 37.1093L48.154 65.696L36 102.879L36.8409 105.134L44.2094 108.053L70.0793 111.837L94.2072 113.448Z" fill="#A5B9DC" stroke="#333333" stroke-width="4" stroke-miterlimit="10"/>
</svg>
