<svg width="245" height="251" viewBox="0 0 245 251" fill="none" xmlns="http://www.w3.org/2000/svg">
<path d="M76.082 114.745L69.8218 117.683L67.6138 120.596V123.339L69.5307 125.84L71.8358 127.515L81.6385 187.794L87.8259 231.71L88.8449 236.687L91.7567 240.45L106.582 245.597L126.406 248L146.472 245.767L157.27 240.79L161.395 234.454L168.941 163.93L173.891 126.01L177.142 123.097L178.671 120.45L177.676 117.44L174.886 115.207L170.567 113.532L171.95 107.001L173.187 105.253L174.182 98.5529L185.077 69.2753L187.333 62.4535L186.824 60.7056L181.922 58.7877L177.434 57.2826L177.967 54.8792L177.264 53.2526L171.853 51.3348L165.665 50.3395H162.171L159.599 51.1406L158.92 52.5001L158.726 54.3694L156.008 55.122L154.601 56.7L149.214 84.3753L145.793 100.762L146.206 103.044L145.696 106.588L144.653 110.837L134.195 110.449L137.762 61.5553L140.576 24.849L140.406 21.1104L137.907 5.18488L136.209 3.94675L134.656 4.89358L129.9 21.3046L129.148 24.3149L126.139 67.6488V70.5377L124.392 70.1735L122.014 34.0741L121.505 30.0685L114.25 3.94675L112.236 3L110.61 3.75257L107.601 31.8164L107.359 34.9481L107.722 40.7259L109.736 60.39L108.936 61.1669L107.48 54.0053L106.024 48.8343L102.312 48.6159L100.104 49.2956L99.958 52.8885L96.6095 53.3255L95.0081 54.3208L93.9404 55.0734L93.3338 59.0305L92.4846 59.4918L90.5192 48.7615L88.7721 41.9155L86.0303 41.2114L82.1481 42.134L81.5415 48.2274L77.1254 49.5626L73.146 51.6504L72.7093 52.8885L72.8063 54.9763L69.8218 56.0687L68.2932 57.7438L67.6138 58.7392L62.1058 60.6085L60.3345 62.2593L59 63.813L66.6432 88.4296L73.2916 108.361L74.7959 108.531L76.082 114.745Z" fill="#536858" stroke="#333333" stroke-width="4" stroke-miterlimit="10"/>
</svg>
