<svg width="245" height="250" viewBox="0 0 245 250" fill="none" xmlns="http://www.w3.org/2000/svg">
<path d="M60.5918 75.7366L59 73.6209L61.8247 56.2564L71.1727 36.4157L86.1701 21.1668L105.927 11.6069L119.739 9.67931L120.41 8.66059L119.63 5.38515L121.643 2H125.81L128.4 4.49184V7.31282L126.715 8.55087L127.277 9.67931L143.039 12.2494L160.065 21.0885L170.771 30.4133L177.247 38.8762L185.737 58.2311L187.75 74.6709L187.173 75.7366L177.684 76.6456L163.81 77.1628H156.694L155.414 77.8524L152.777 84.3876L148.157 91.6594L138.528 98.6178L127.745 101.595L127.495 103.57L127.12 152.435L126.715 191.741L127.916 193.731L133.675 195.126L144.396 200.313L152.746 208.886L157.911 220.264L160.096 232.832L158.114 237.816L145.988 244.007L124.296 247L100.497 244.398L88.5735 238.819L84.4067 232.441L85.2026 226.642L91.9444 209.089L101.292 199.31L110.235 194.734L117.585 193.135L119.364 191.929L119.567 128.097L119.77 103.758L118.771 101.36L108.44 99.1662L97.5158 89.3869L91.1641 76.818H79.0382L60.5918 75.7366Z" fill="#746D69" stroke="#333333" stroke-width="4" stroke-miterlimit="10"/>
</svg>
