<svg width="245" height="251" viewBox="0 0 245 251" fill="none" xmlns="http://www.w3.org/2000/svg">
<path d="M132.35 46.9535L121.897 38.3618L102.372 15.4203L92.8504 6.34621L84.7702 3L79.5436 4.92932L73.3558 13.5211L68.1293 29.77L63.8339 46.9535L58.1267 59.3738L47.1929 64.6193L35.7486 74.658L31.0025 80.8682L28.6296 91.8415L30.522 102.363L37.1904 123.827L35.298 130.519L22.9225 162.535L21 177.337L25.776 185.929L35.298 190.692L76.69 189.275L90.4774 190.692L102.853 204.077L123.309 227.47L140.46 245.618L149.502 248L154.728 243.719L161.396 227.953L171.369 191.656L179.479 169.68L185.667 158.706L189.452 144.387L195.64 120.963L208.015 99.4988L222.343 78.9389L225.167 65.584V53.1636L219.91 48.8527L209.937 46.4711L189.001 47.4358L167.104 50.2998L143.794 49.8174L132.35 46.9535Z" fill="#536858" stroke="#333333" stroke-width="4" stroke-miterlimit="10"/>
</svg>
