<svg width="250" height="252" viewBox="0 0 250 252" fill="none" xmlns="http://www.w3.org/2000/svg">
<path d="M82.8788 170.95L65.069 188.859L43.6613 208.945L32.2718 244.063L27.9783 248L23.7047 241.924L35.1142 206.427L58.2909 182.763L78.6053 164.854L85.7411 156.6L84.31 151.583L71.1116 156.959L41.1767 165.574L42.6078 170.95L39.3878 174.888L29.7672 175.967L26.567 165.214L40.4611 154.101L69.7003 148.005L68.627 144.068H46.5236L39.3878 146.926L25.8514 160.197L18 162.696V156.959L27.6205 144.068L32.2718 139.751L39.3878 131.876L46.5236 129.577H56.5019L55.4286 126.14H38.3144L37.2609 120.403L47.2392 118.245L39.3878 109.291L27.6205 99.2571L22.2736 85.2663H28.3361L36.1875 91.0025L43.6613 101.036L70.0581 108.571L71.1116 104.993L55.0708 100.676L51.8706 90.6428L55.4286 78.1109H59.0064L64.7112 92.8014L75.405 96.0193V92.8014L69.3425 88.5042L67.1958 79.53L72.5428 72.7345L78.2475 61.2619H83.9522L85.7411 66.2787V75.5926L90.3725 78.4707V65.5591L86.8145 49.0699L75.7628 44.0532L76.8163 38.3169L81.8055 36.5181L87.1524 39.756L87.868 26.4847H92.1614L96.435 35.6187L103.551 56.0653L106.771 69.3167L109.614 74.6932L113.191 73.2541L110.329 59.643L120.307 28.4634L126.728 20.9283L123.528 4.43906L129.59 3L134.221 11.6144H141.357V15.5518L133.506 26.6645L141.357 27.3841V32.7606L154.178 21.2881L161.672 9.45578H165.23L168.45 14.8323L167.019 22.7271L162.029 27.3841L157.04 41.7147L149.547 56.0653L155.251 57.8442L155.609 61.4418L149.904 66.0988L149.547 72.9143L150.62 78.9904L154.894 77.2115L161.314 54.2665L166.303 46.3717H172.008V51.7482L164.156 70.0362L163.103 75.0529L166.303 77.2115L169.861 68.5972L181.27 60.3625L185.186 61.0821L200.531 39.9359V32.041L206.932 34.5594V42.4342L200.531 47.8107V56.4251L191.964 68.5972L186.975 76.8518L189.837 81.5087L198.385 81.149L202.3 86.8852H206.932L210.152 89.7434L199.1 105.173L196.238 114.847L197.669 118.065L207.647 109.83L210.152 97.2784L215.857 89.7434L219.415 92.9812V102.655L209.078 119.864L191.249 132.415L184.848 134.914L186.26 138.152L200.889 135.993L223.33 123.441H227.982V128.098L223.688 136.353L216.93 139.571L202.658 147.466L206.594 148.905L213.352 147.106L227.982 136.713L231.182 138.851L220.488 147.825L219.415 152.482L227.266 158.219L227.624 167.173L224.404 170.051L217.288 172.19L217.983 177.566L214.425 179.725L212.279 183.302L203.732 186.54L186.617 182.243L173.081 176.507L165.23 171.13L164.514 174.348L179.501 190.478L199.458 205.528L227.266 218.799V224.176L223.688 227.393L199.458 217.72L181.27 203.029L162.745 187.619L153.462 181.883L145.989 170.051L142.411 172.19L150.62 185.461L152.747 190.837L167.376 204.448L175.208 215.561L198.385 229.552L200.531 238.866L194.827 240.665L171.65 227.753L167.734 219.878L154.536 210.904L144.915 200.511L134.579 187.26L132.432 193.695L132.075 209.825L128.159 215.561L124.601 215.201V207.686H121.739L116.968 217.72L114.603 237.427L108.898 246.401H102.855L101.066 234.569L104.624 210.904L111.76 185.101L110.329 180.804L106.771 190.118L99.2775 215.201L94.2883 226.674L90.0147 225.974L91.8036 214.862L101.066 184.741L102.855 177.206L99.6352 175.787L95.3617 187.959L86.0989 213.782L79.6786 235.648L71.1116 238.146L67.1958 233.489L73.9739 209.485L85.3834 188.319H79.3208L78.2475 184.022L82.8788 174.708L91.8036 164.674L87.868 160.717L82.8788 170.95Z" fill="#B9B5AF" stroke="#333333" stroke-width="4" stroke-miterlimit="10"/>
</svg>
