<svg width="250" height="250" viewBox="0 0 250 250" fill="none" xmlns="http://www.w3.org/2000/svg">
<path d="M92.8463 7.83167L98.3258 3.79169L122.966 2L150.363 4.91584L152.655 11.415V68.7479L159.03 74.1229L173.642 90.2478L175.469 102.614L176.83 106.127V150.04L178.011 187.981L175.97 191.107L176.83 205.651L176.257 235.337L165.513 243.311L131.776 247L97.7529 244.752L76.8376 236.461L74.5097 228.486V190.545L72.7548 187.7V132.088L71 107.251L72.4683 102.614L72.7548 94.4283L79.1297 82.7299L93.3836 70.4693L95.3175 68.7479L93.5268 25.5023L92.8463 7.83167Z" fill="#BDB0CA" stroke="#333333" stroke-width="4" stroke-miterlimit="10"/>
</svg>
