<svg width="120" height="162" viewBox="0 0 120 162" fill="none" xmlns="http://www.w3.org/2000/svg">
<path d="M40.0129 73.7823L39.3851 102.574L38.836 103.744L36.953 102.495L34.7693 102.956L33.0432 105.164L33.6708 107.439L35.7762 108.938H38.1299L39.1498 107.058L39.8298 107.136L39.2806 115.498L29.9048 118.075L21.6537 122.361L18.11 126.095L17.1162 129.197L16.6716 142.778L17.1162 145.421L20.0191 149.247L25.642 153.795L39.3198 158.804L57.9928 161L77.2149 159.567L89.4936 155.794L97.7056 150.311L100.87 145.841L101.275 143.396V129.368L99.2748 125.187L94.3057 121.099L87.4799 118.154L80.5625 116.431L80.8371 96.3426L81.504 74.8735L88.7744 74.7551L103.655 73.7823L115.058 72.2835L118.078 71.1528V70.0353L112.377 48.106L110.141 38.6664L107.447 29.332L102.191 19.2087L96.4895 12.4643L87.5453 6.73213L80.6148 3.81348L67.3685 1.67049L54.776 1L40.2351 3.58998L30.964 7.86278L23.0137 14.0419L16.6716 23.9285L9.93733 42.5974L2 66.88L2.54918 68.3525L7.36126 70.2588L24.2558 72.7305L40.0129 73.7823Z" fill="white" stroke="#333333" stroke-width="2" stroke-miterlimit="10"/>
</svg>
