<svg width="171" height="192" viewBox="0 0 171 192" fill="none" xmlns="http://www.w3.org/2000/svg">
<path d="M59.5873 85.8788H54.642L42.6473 78.0613L35.3594 72.9733L33.9495 70.3748L31.5854 68.9554L28.7657 65.0467H26.5315L25.2302 69.1738L21.7164 65.0467H20.3065L19.4822 71.0736L14.8839 71.7941L13.8212 73.0825L16.424 77.1223L11.3484 80.0702V81.6206L16.6626 84.3502H19.0051L19.7208 85.8788L28.8958 93.6962L41.4761 102.933L47.4843 106.361L48.1567 111.624L46.942 120.643L42.9727 131.583L38.4828 134.88L33.8411 142.173L30.3924 144.095L22.4538 141.671L16.4023 141.147L12.9535 141.496L8.13835 139.225L7.2274 140.994L8.57217 144.095L3.97388 144.881L2 146.781L2.41212 148.047L8.24677 150.799V154.555L11.8473 164.971L20.3282 171.478L30.0888 173.793L35.251 171.762L36.1185 173.793L38.548 180.453L42.7124 185.934L49.176 189.1L55.6397 191H60.2381L66.398 186.502L70.5625 180.453L75.0091 178.269L81.9065 172.046L89.0859 159.905L91.9706 158.747L95.1157 164.25L106.46 172.199L121.816 178.99H124.983L129.148 174.229L133.746 169.011L133.03 167.285L125.851 163.966L116.936 162.372L109.193 160.931L101.016 157.896L97.5667 155.144L103.011 149.358L109.323 148.353L117.63 152.895L137.325 158.136L155.349 159.817L158.429 159.577V157.175L150.361 155.756L148.69 153.594H156.998L161.748 154.315L165.066 154.074V150.974L158.191 146.672V142.61L160.316 139.509L165.066 137.369L167.669 135.448L169.339 131.408L164.828 126.386L157.952 126.145L151.792 121.363L155.588 110.379L154.872 105.859L145.849 109.2L143.246 110.379L140.643 114.921L136.37 122.084L131.143 123.525H126.219L125.829 121.538L127.152 117.04L127.022 115.598L129.386 115.729L131.599 114.397L129.234 109.768L135.416 105.947V104.352L132.141 102.234L128.063 101.71L127.933 97.0809L126.35 95.3776L124.115 96.2948L120.45 100.138L108.629 102.911L103.922 102.649L107.848 93.3905L113.878 86.774L116.914 79.2404L121.491 76.2051L125.829 70.0036L123.985 65.0467L123.074 62.47L128.345 54.5651L139.038 31.0471L137.607 29.2565L133.876 30.3265L124.961 34.9996L113.01 40.9172L116.567 32.4883L117.825 25.1294L119.951 18.8405L118.172 17.5958L114.789 19.037L105.527 24.4088L99.1068 29.8024L101.775 22.247L105.701 15.2593L106.048 10.7609L104.638 8.33709L96.7859 11.7654L88.587 17.5084L84.4876 19.845L87.5242 8.33709V3.88244L85.6589 1H83.056L80.2146 5.8259L73.6209 13.9054L72.3628 26.4833L68.2633 40.8299L64.8797 42.6205L64.511 46.3982L62.3854 51.77L62.2118 56.989L59.5223 57.513L58.0907 61.662L56.4856 65.5926L58.6329 67.0338L59.891 68.9991V73.3227L60.2381 78.891L59.5873 85.8788Z" fill="white" stroke="#333333" stroke-width="2" stroke-miterlimit="10"/>
</svg>
