<svg width="162" height="154" viewBox="0 0 162 154" fill="none" xmlns="http://www.w3.org/2000/svg">
<path d="M32.159 66.4939L33.4127 85.9937L32.7859 92.4132L30.0756 98.1277L22.3319 107.312L15.2705 115.679L12.9105 119.724V122.785L15.2705 126.125L30.9053 138.389L48.6419 150.801L53.3434 152.193H57.6393L80.0775 142.025L95.03 135.328L96.4128 132.396V128.778L91.2873 122.229L80.4831 108.295L75.3575 101.041L73.0159 93.5264L71.3567 83.489L70.8036 70.5386L70.232 60.9093L78.5471 57.7181L86.5859 51.447L90.1811 46.0108L90.8817 40.5746L90.4576 35.9734L66.7843 9.62738L60.4049 3.78303L54.6525 1H48.0888L39.9211 2.11322L35.2012 4.89625L27.31 12.4104L15.2705 28.1623L5.01942 39.8696L1.55321 44.4709L1 48.3671V54.5084L2.6594 57.0131L11.6568 62.8574L22.6085 65.5106L32.159 66.4939Z" fill="white" stroke="#333333" stroke-width="2" stroke-miterlimit="10"/>
<path d="M106.716 120.102L106.078 124.607L107.337 128.78L110.951 132.75L116.244 134.578L121.337 133.507L123.454 131.033L126.758 131.476L133 133.932L140.958 134.578H142.966L145.302 132.215V130.183L145.941 128.152L153.041 124.183L157.185 123.001L158.444 122.779L161 119.345V116.446L158.773 112.477L158.243 110.87L159.412 108.728L159.612 105.829L157.495 101.435L152.841 98.647L149.227 96.5051L146.781 91.8891L144.025 89.8581L138.731 88.0302L131.522 87.6055L126.429 89.7473L123.034 92.8492L119.858 96.6159L117.321 97.4652L111.371 101.86L108.724 104.648L108.414 106.273L108.085 109.91L106.808 111.092L105.22 113.566V117.314L106.716 120.102Z" fill="white" stroke="#333333" stroke-width="2" stroke-miterlimit="10"/>
</svg>
