<svg width="152" height="163" viewBox="0 0 152 163" fill="none" xmlns="http://www.w3.org/2000/svg">
<path d="M28.1307 84.8994L20.1565 91.0528V93.6835V95.8795L14.8365 101.37V104.446L29.9079 127.07L48.3028 147.943L59.3812 158.706H63.5934L66.4784 157.608L71.1291 158.706L74.4525 159.804L76.5298 162H78.6647L103.268 141.573L119.217 126.635L131.414 117.634L148.032 106.642L150.029 102.696V96.9775L144.039 87.5415L135.846 82.2688L118.778 64.2546L116.782 58.1012L113.458 51.0786L109.915 44.9252L107.919 36.1411L105.484 33.7163L101.71 31.9664L99.8523 26.8538L105.634 19.0191L105.288 14.3297L101.076 11.0242L95.1093 11.7219L87.0428 16.4113L87.816 18.0355L94.6708 13.7121L100.972 13.5634L103.384 17.5665L98.479 24.4291L97.8559 26.5907L96.6095 27.2884L91.8666 22.1187L84.6309 18.0355L81.6766 14.7986L79.5763 5.00808L78.1685 2L75.8374 2.4575L77.3145 6.00315L78.4109 12.8657L75.295 12.0994L74.8334 13.1059L75.0642 14.7986L78.5609 15.9538L79.334 16.1025L80.1188 19.4194L83.6962 26.2819L87.816 30.5253L90.851 33.1445L91.3242 35.3062L87.0428 32.218L83.8462 30.8341L73.4255 24.8179L67.3554 21.0435L64.5628 20.1171L63.3972 21.1922V22.4275L68.7633 25.1267L67.9786 25.7444L63.2356 23.9715L60.743 24.0516L60.3622 26.0532L63.8588 26.5907L68.1402 28.2949L68.4056 29.0498L64.1473 28.3407L54.1189 28.1806L53.8766 29.5302L55.3999 30.2508L67.367 31.2001L74.9142 32.4697L83.2576 35.6607L83.0961 36.6901L76.9914 34.7L69.7673 32.7098L60.6968 32.2409L53.0804 32.7899L48.9837 33.4304L48.7413 34.6199L49.5376 35.5807L50.83 36.3699L49.7799 36.8502L46.4102 36.4499H44.483L43.6867 37.6509L40.871 37.2506L39.59 38.4401L39.6708 40.1099L38.2283 39.7897L31.7197 37.2506L29.2385 37.4907L28.6731 38.9204L29.4693 40.19L28.0268 40.4302L22.8915 36.1297L20.2488 37.1705L20.8027 38.36L26.2612 42.02L33.1622 46.2405L37.4205 48.3907L36.6242 49.0999L34.6162 48.7796L34.2123 49.9806L32.9314 50.3008L30.2772 49.6603L29.4693 50.6096L29.7117 51.8906L29.1577 53.0801L24.0917 48.3107L19.9257 47.1097L15.1827 45.4398L12.2977 43.77L11.1668 44.8908L11.5707 46.4006L14.3057 48.5509L21.6913 51.0099L24.0917 52.0508L25.1418 53.4004L23.6185 53.9608L16.8676 52.8399L11.6515 52.2109L9.80508 51.6504L9.40114 52.5197L10.5321 54.5098L14.4672 54.9902L24.8995 56.4199L25.7765 57.3807H20.6643L14.1095 57.6094L8.74342 58.2042L4.69284 57.495L3.50418 58.3185V60.8005L10.5321 61.1551L19.4641 59.977L26.9767 60.8005L26.1343 61.9786L23.757 62.8135L23.6416 64.1059V66.2333L20.422 68.8297L18.7486 69.1842L19.591 71.3116L21.6106 71.426L25.3034 68.7153L28.8808 67.297L30.4272 67.4114L30.1848 68.7153L28.8808 70.2479L23.9994 71.6662L18.1601 73.1988L11.3745 72.604L8.27023 72.4897V74.3769L10.4167 75.6807L16.9714 75.9095L23.3993 75.086L23.5147 76.3899L17.687 79.6381L14.4672 80.5188L5.40832 83.0008L1 85.7115V87.1297L4.69284 87.3699L12.9209 84.5334L18.4025 83.5841L25.5458 79.1006L28.9962 78.2771V79.6381L27.923 81.1022L28.0499 83.5841L28.1307 84.8994Z" fill="white" stroke="#333333" stroke-width="2" stroke-miterlimit="10"/>
</svg>
