<svg width="114" height="162" viewBox="0 0 114 162" fill="none" xmlns="http://www.w3.org/2000/svg">
<path d="M39.8578 49.6981L39.0583 48.3657L38.2774 32.9963H29.3521L27.7716 32.6021L27.1952 4.79074L28.3666 3.25196L47.593 2.25736L66.8195 1L70.966 1.33778L89.3928 4.65942L90.1925 5.71032L90.6573 30.3502L90.118 32.133L88.7421 32.6584L81.918 32.7335L81.5833 34.3287L81.4532 48.4971L82.1784 49.1539L87.0685 49.6981L110.925 56.9231L112.041 59.0436V100.967L112.654 130.918L111.669 132.175L84.3352 156.252L82.3643 157.622L76.4327 161H73.5877L18.084 151.016L11.4087 148.145L4.73335 145.274L3.85942 142.534L3.24584 101.981L2.50202 70.5285L2 63.7914L2.87393 61.4269L15.2391 56.5477L32.0483 50.5613L38.8909 50.111L39.8578 49.6981Z" fill="white" stroke="#333333" stroke-width="2" stroke-miterlimit="10"/>
</svg>
