<svg width="125" height="193" viewBox="0 0 125 193" fill="none" xmlns="http://www.w3.org/2000/svg">
<path d="M38.9263 36.5983H36.2924L32.8907 33.4894V27.9004L35.0522 26.6545L38.9263 14.3731L47.277 5.2006L58.108 1H67.8642L78.8488 6.28041L83.9631 12.1897L87.3648 18.7992L88.4514 27.4258L90.6129 28.3632V34.1183L88.9121 35.827L87.2113 36.5983H84.4238V56.5096L83.03 57.7437L82.4158 60.3898L79.0023 63.1902L78.6953 67.5451H82.8765L84.1167 69.8708L85.038 71.5914L91.2271 72.8255H93.7075L97.5816 76.4091L102.531 86.9818L105.011 95.6915L106.865 96.7713L111.661 111.39L110.574 113.716L111.661 116.362H113.515L121.098 120.563L123.886 128.644L122.492 133.782L120.791 137.045L118.004 138.291L116.456 135.49L113.822 127.089L110.421 127.564L106.712 129.273L108.873 138.291L107.633 141.554L102.531 140.154L99.8967 136.107L98.0423 129.118L98.5029 126.009L101.29 120.717L100.05 116.362L97.2627 116.825L94.7941 110.144L93.8611 121.809L94.6406 131.444L95.2548 150.098L94.1681 154.298L94.6406 170.934L94.3217 178.552L94.7941 180.261V191H82.8765L62.6908 190.371L61.2853 190.11L61.368 179.205L61.994 173.865L62.6908 158.392L66.8602 157.811V154.785L60.4939 155.247L56.7851 154.666L55.8638 158.036L59.9152 158.736L60.2577 163.625L59.9152 175.266L60.8364 178.054L59.9152 190.039L58.2852 191L26.9024 189.813V179.098L27.7055 176.547L28.178 157.11L28.5205 152.459L28.0599 150.821L28.8749 130.922L28.2843 121.5L28.5205 111.96L27.9418 110.797L27.4811 115.104L24.5519 115.401L22.9692 119.578V120.575L25.8393 126.543L24.6582 132.203L22.9692 137.484L20.0045 139.264L16.5438 139.169L15.7524 137.377L19.3076 127.433L17.1343 126.543L12.4807 124.953L10.4964 125.25L8.52384 130.815L6.44505 136.784L3.97647 135.49L1 131.812V127.837L4.61428 119.388L11.146 115.805H12.6342L14.1106 111.829L13.1303 110.239L14.1106 105.469L17.2761 96L19.1659 94.8253L22.3313 85.1781L26.3827 77.2278L30.6466 72.8492H32.8199L33.9065 71.8644L39.1508 71.1643L39.6468 68.1265L42.3044 66.4415H45.2927L45.8832 62.1698L42.3044 61.2917L40.261 56.6995L39.2098 55.1094L38.9263 36.5983Z" fill="white" stroke="#333333" stroke-width="2" stroke-miterlimit="10"/>
</svg>
