<svg width="66" height="192" viewBox="0 0 66 192" fill="none" xmlns="http://www.w3.org/2000/svg">
<path d="M23.38 8.65966V3.64591L25.597 1H43.7194L44.9538 3.33413V8.65966L41.242 9.55287V14.2127L43.4086 15.148L44.9538 18.5608V24.1559L43.2575 26.6502L44.0301 57.2635L44.9538 62.2351L56.2656 67.2068L62.1524 72.3385L64.7809 81.3548L59.2804 160.918L58.1635 173.566L51.714 184.25L39.109 191H33.7848L18.6521 185.38L6.32417 176.38V173.01L1 87.2533L2.95668 76.5686L11.0857 67.291L21.734 63.0694L23.6991 58.5696L24.5389 25.6727L23.4136 22.5802L23.6991 14.7099L26.7811 13.3026V10.4966L23.38 8.65966Z" fill="white" stroke="#333333" stroke-width="2" stroke-miterlimit="10"/>
</svg>
