<svg width="163" height="134" viewBox="0 0 163 134" fill="none" xmlns="http://www.w3.org/2000/svg">
<path d="M53.9082 47.4509L50.416 44.2607L46.9238 41.0576L50.416 35.31L90.7305 20.6247H96.4953L99.2942 16.7887L111.684 13.2755L125.961 16.4787L133.266 18.3902L137.388 16.1558L135.629 13.2755H132.791L132.599 9.99492L133.921 6.57222L147.928 2L156.222 5.33229L162 13.4176V24.719L160.96 30.2212L148.391 41.8325L136.643 51.7906L126.539 54.2705L124.266 56.3499L125.499 59.0493L123.239 63.1953L91.8989 87.4642L64.8856 113.18L54.9867 121.678L32.7238 130.81L6.54502 132.256L2 128.317L4.88878 124.584L15.8148 117.532L28.1916 117.739L34.38 113.593L38.5014 109.654H45.306L52.5216 108.414L59.9425 99.6955L66.3364 89.9441L70.2523 84.9715L66.5418 82.892L63.0367 80.6188L61.3805 82.892L63.0367 90.1636L59.5317 93.6897L53.7541 91.8169L49.6328 90.5769L48.4003 92.8501L49.222 102.188L46.1277 103.015L44.2661 91.6102L47.1549 85.1781L51.2762 84.7648L56.8483 86.418L57.2592 84.3515V79.1593L60.9697 76.0595L65.091 75.6333L68.1852 76.8861L69.4177 72.7401L70.0469 69.2141L74.9899 67.1217L80.3566 68.1679L82 65.6881V60.4959L85.0942 58.2227L90.6663 58.636L92.1043 55.11L93.3368 51.584L97.8819 50.1245L100.552 49.9178L107.973 43.2791L104.057 32.701L94.3768 36.847L91.6935 38.9264L82 43.6924L72.512 52.4106L69.4177 53.0306L65.5018 46.1852L53.9082 47.4509Z" fill="white" stroke="#333333" stroke-width="2" stroke-miterlimit="10"/>
</svg>
