<svg width="142" height="164" viewBox="0 0 142 164" fill="none" xmlns="http://www.w3.org/2000/svg">
<path d="M43.3699 111.682L31.7389 123.377L17.7584 136.495L10.3203 159.429L7.51644 162L4.72554 158.032L12.1766 134.85L27.3124 119.396L40.5789 107.701L45.2391 102.31L44.3045 99.0338L35.6851 102.545L16.1358 108.171L17.0704 111.682L14.9675 114.253L8.68473 114.958L6.59479 107.936L15.6685 100.678L34.7635 96.6973L34.0625 94.126H19.6277L14.9675 95.9925L6.12748 104.659L1 106.291V102.545L7.28278 94.126L10.3203 91.3066L14.9675 86.1638L19.6277 84.6627H26.1441L25.4431 82.4177H14.2665L13.5786 78.6716L20.095 77.2619L14.9675 71.4143L7.28278 64.8618L3.79091 55.7249H7.75009L12.8776 59.471L17.7584 66.0235L34.9971 70.9444L35.6851 68.6079L25.2095 65.7885L23.1196 59.2361L25.4431 51.052H27.7797L31.5053 60.6458L38.489 62.7473V60.6458L34.5298 57.8395L33.1279 51.9788L36.6198 47.5409L40.3453 40.0486H44.0708L45.2391 43.3248V49.4074L48.2637 51.287V42.855L45.9401 32.0865L38.7227 28.8102L39.4107 25.0641L42.6689 23.8894L46.1608 26.0039L46.6281 17.3369H49.432L52.2229 23.302L56.8701 36.6549L58.973 45.3089L60.8292 48.82L63.1658 47.8802L61.2966 38.9913L67.813 18.6291L72.0059 13.7083L69.9159 2.93979L73.8751 2L76.8997 7.62571H81.5598V10.1971L76.4323 17.4544L81.5598 17.9243V21.4355L89.9326 13.9432L94.8264 6.21602H97.15L99.2529 9.7272L98.3182 14.883L95.06 17.9243L91.8018 27.2831L86.908 36.6549L90.6335 37.8166L90.8672 40.1661L87.1416 43.2074L86.908 47.6583L87.609 51.6264L90.3999 50.4647L94.5927 35.4802L97.8509 30.3244H101.576V33.8355L96.449 45.7788L95.761 49.055L97.8509 50.4647L100.175 44.839L107.626 39.4612L110.183 39.9311L120.204 26.1214V20.9656L124.384 22.6102V27.753L120.204 31.2642V36.8899L114.609 44.839L111.351 50.2297L113.22 53.271L118.802 53.0361L121.359 56.7822H124.384L126.487 58.6487L119.27 68.7254L117.4 75.0429L118.335 77.1444L124.851 71.7667L126.487 63.5696L130.212 58.6487L132.536 60.7633V67.0808L125.786 78.3191L114.142 86.5162L109.962 88.1478L110.884 90.2624L120.438 88.8527L135.093 80.6556H138.131V83.6969L135.327 89.0876L130.913 91.1891L121.593 96.3449L124.163 97.2847L128.577 96.11L138.131 89.3226L140.221 90.7192L133.237 96.5799L132.536 99.6211L137.664 103.367L137.897 109.215L135.794 111.094L131.147 112.491L131.601 116.002L129.278 117.412L127.876 119.748L122.294 121.863L111.117 119.057L102.277 115.31L97.15 111.799L96.6827 113.901L106.47 124.434L119.503 134.263L137.664 142.93V146.441L135.327 148.543L119.503 142.225L107.626 132.631L95.5273 122.568L89.4652 118.822L84.5844 111.094L82.2478 112.491L87.609 121.158L88.9979 124.669L98.5519 133.558L103.666 140.815L118.802 149.952L120.204 156.035L116.479 157.21L101.343 148.778L98.7856 143.635L90.1662 137.774L83.8834 130.987L77.1333 122.333L75.7314 126.536L75.4977 137.069L72.9405 140.815L70.6169 140.581V135.673H68.7476L65.6322 142.225L64.0875 155.095L60.3619 160.956H56.4157L55.2474 153.229L57.571 137.774L62.2312 120.923L61.2966 118.117L58.973 124.199L54.0792 140.581L50.8209 148.073L48.03 147.616L49.1983 140.359L55.2474 120.688L56.4157 115.767L54.3128 114.841L51.5219 122.79L45.4728 139.654L41.2799 153.933L35.6851 155.565L33.1279 152.524L37.5544 136.847L45.0055 123.025H41.0463L40.3453 120.218L43.3699 114.136L49.1983 107.583L46.6281 104.999L43.3699 111.682Z" fill="white" stroke="#333333" stroke-width="2" stroke-miterlimit="10"/>
</svg>
