<svg width="163" height="120" viewBox="0 0 163 120" fill="none" xmlns="http://www.w3.org/2000/svg">
<path d="M85.4445 11.9164L67.8713 5.3616L52.8658 1H37.8603L31.272 2.458L20.6629 8.82596L12.0579 19.7549L4.74308 32.8646L2 48.3296L3.29012 55.2583L6.74715 63.994L12.7969 71.4585L21.7526 79.4714L38.5993 90.5748L56.3479 99.8588L58.1766 102.413L60.5564 103.323H61.6712L64.0886 104.706L65.9424 107.66L74.9231 114.526L78.9939 117.181L85.4445 119H93.348L112.75 115.087L121.054 110.75L132.728 106.688L143.7 101.367L145.667 99.4102V96.3321L154.109 83.1726L158.743 72.8168V70.5613L160.109 66.5735L160.935 60.7165L162 59.5825V54.3237L160.71 48.6785L161.011 44.5412L158.142 33.5624L157.015 30.771L154.435 29.3504L148.31 24.3782L144.389 21.1506L140.607 20.1661L137.575 18.8202L134.406 18.9698L128.808 16.1908L125.526 10.1095L124.311 9.32442L121.994 8.85087L117.572 6.74483L110.433 5.74791L100.563 7.09376L93.9493 8.65147L88.5759 11.1688L86.5092 12.1158L85.4445 11.9164Z" fill="white" stroke="#333333" stroke-width="2" stroke-miterlimit="10"/>
</svg>
