<svg width="137" height="164" viewBox="0 0 137 164" fill="none" xmlns="http://www.w3.org/2000/svg">
<path d="M74.7184 30.7043L67.8918 25.0934L55.1411 10.1112L48.9227 4.18528L43.6458 2L40.2325 3.25997L36.1915 8.87091L32.7783 19.4825L29.9731 30.7043L26.246 38.8155L19.1056 42.2412L11.6317 48.7971L8.53227 52.8527L6.98261 60.019L8.21846 66.8899L12.5733 80.9073L11.3375 85.2779L3.25548 106.186L2 115.853L5.11902 121.464L11.3375 124.574L38.369 123.649L47.373 124.574L55.455 133.315L68.8138 148.593L80.0148 160.445L85.9194 162L89.3326 159.204L93.6875 148.908L100.2 125.204L105.497 110.852L109.538 103.686L112.009 94.3342L116.05 79.0371L124.132 65.0196L133.489 51.5927L135.333 42.8712V34.7599L131.9 31.9446L125.388 30.3893L111.715 31.0193L97.4147 32.8896L82.1922 32.5746L74.7184 30.7043Z" fill="white" stroke="#333333" stroke-width="2" stroke-miterlimit="10"/>
</svg>
