<svg width="64" height="162" viewBox="0 0 64 162" fill="none" xmlns="http://www.w3.org/2000/svg">
<path d="M21.7051 32.1878L20.4626 31.7461L19.7859 13.9315L19.2446 4.33717L19.5522 2.44773L20.8317 1.84653L26.8353 1L39.4454 1.36805L47.8111 2.15325L49.8164 2.99982L50.4192 4.44759L48.8445 20.2869L47.8726 32.1878L46.79 32.4454L46.7654 32.838L47.9218 33.795L48.5247 52.7629L49.3981 68.688L52.4738 96.8331L57.6531 129.775L62.4634 148.167V152.191L58.6127 156.203L45.7566 160.227L30.3784 161L12.3306 158.129L3.69426 153.724L1 149.7V147.21L4.07563 138.585L8.68908 119.249L13.1057 97.0294L17.3254 66.5778L19.2569 48.8491L20.1304 33.8441L20.5241 32.8871L21.6805 32.5436L21.7051 32.1878Z" fill="white" stroke="#333333" stroke-width="2" stroke-miterlimit="10"/>
</svg>
