<svg width="164" height="133" viewBox="0 0 164 133" fill="none" xmlns="http://www.w3.org/2000/svg">
<path d="M2 47.3088L2.75167 40.3038L7.9158 33.6675L12.2014 31.1643L15.7254 29.7866L20.7627 23.6547L21.5241 21.9083L20.8895 19.7738L21.5241 18.6484H23.2813L28.6992 21.0836H33.1116L36.382 23.4025L39.5839 20.0261L36.382 18.6484L34.7517 16.5236L35.8841 14.6414L38.5296 15.3981L40.7944 17.1445L43.4399 14.6414L47.7157 3.62933L48.8578 1H50.8981L57.5851 4.17265L62.1928 6.66613L65.9902 6.28773L68.6455 6.81166L70.6467 8.99467H73.1751L74.5028 9.72233L74.903 12.7688L78.6321 13.9622L85.9536 16.9408L86.4222 16.2131L82.8298 10.45L77.9683 6.87958L75.7035 5.55035L75.7718 4.03681L77.4997 3.37706L82.2245 3.11511L87.6815 4.62866L90.1415 6.21981L90.0146 7.07361L89.0873 8.36403L89.7413 9.08198L91.0982 9.2469L92.3575 7.80128L92.9237 7.8692L104.023 16.0773L117.124 26.0997L121.927 29.0395L125.051 29.8448L128.877 29.903L133.026 29.3597L134.705 28.991L135.457 29.1462L140.68 36.6072L144.116 34.9773L146.957 34.725L153.4 36.2191L157.021 36.093L159.511 34.7638L160.672 32.1539L160.067 29.7186L158.388 27.7588L155.684 26.3035L151.594 25.5758L150.998 24.9743L151.428 24.1593L152.541 23.8682L157.744 25.275L160.887 27.7588L162 30.9605L161.444 34.8123L158.31 37.2864L154.22 37.9268L150.227 37.1991L146.312 36.258L144.155 36.5199L141.539 38.0529L145.483 44.1847L146.342 46.0378L146.215 46.8916L143.276 49.6955L140.475 54.2847L139.655 58.6216L141.871 72.3697L145.082 90.4547L145.658 95.8588L143.911 96.179L142.808 96.8194L142.71 98.1971L143.54 99.4293L145.805 99.2449L146.166 100.254L145.57 105.658L143.96 110.286L141.558 113.953L140.641 114.312H140.084L139.489 112.983L138.063 103.96L137.087 102.088L131.513 92.6473L130.176 92.8802L113.922 99.4293L110.613 101.564L105.156 103.863L98.5369 106.987L91.928 109.452L90.2684 110.936L87.291 111.761L76.709 117.514L61.4899 124.577L51.7279 130.496L49.7462 131.485H46.9347L37.3386 113.73L31.2178 102.553L19.9719 85.458L13.8511 74.446L5.74862 61.4547L3.76693 55.5363L4.09883 52.0823L2 47.3088Z" fill="white" stroke="#333333" stroke-width="2" stroke-miterlimit="10"/>
</svg>
