<svg width="87" height="163" viewBox="0 0 87 163" fill="none" xmlns="http://www.w3.org/2000/svg">
<path d="M13.1556 74.9766L9.06731 76.895L7.62531 78.7975V80.589L8.87716 82.222L10.3826 83.3159L16.7843 122.682L20.8251 151.362L21.4906 154.612L23.3921 157.069L33.074 160.43L46.0202 162L59.1248 160.541L66.1763 157.291L68.8701 153.153L73.7983 107.097L77.0309 82.3329L79.1542 80.4305L80.1525 78.7024L79.5028 76.7364L77.6805 75.2779L74.8599 74.1839L75.7632 69.9192L76.5713 68.7776L77.221 64.4019L84.3359 45.2818L85.8095 40.8268L85.4768 39.6853L82.2759 38.4328L79.3444 37.4498L79.693 35.8803L79.2334 34.8181L75.6998 33.5656L71.659 32.9156H69.3772L67.6975 33.4387L67.2539 34.3266L67.1271 35.5474L65.3523 36.0388L64.4333 37.0694L60.9155 55.1431L58.6812 65.8446L58.9506 67.3349L58.6178 69.6496L57.9364 72.4241L51.1068 72.1705L53.4361 40.2402L55.2743 16.2687L55.1633 13.8272L53.5312 3.42686L52.422 2.61829L51.4078 3.23662L48.302 13.954L47.8108 15.9199L45.8459 44.2196V46.1062L44.705 45.8684L43.1521 22.2933L42.8193 19.6774L38.0813 2.61829L36.7662 2L35.7044 2.49147L33.7396 20.8189L33.5811 22.8641L33.8188 26.6374L35.134 39.4792L34.6111 39.9865L33.6603 35.3096L32.7096 31.9326L30.2851 31.7899L28.8431 32.2339L28.7481 34.5802L26.5613 34.8656L25.5155 35.5156L24.8182 36.0071L24.4221 38.5913L23.8675 38.8926L22.584 31.8851L21.443 27.4142L19.6524 26.9544L17.1171 27.5569L16.721 31.5363L13.837 32.4082L11.2382 33.7717L10.953 34.5802L11.0164 35.9437L9.06731 36.6571L8.069 37.7511L7.62531 38.4011L4.02829 39.6219L2.87151 40.7L2 41.7146L6.99148 57.7907L11.3333 70.807L12.3157 70.918L13.1556 74.9766Z" fill="white" stroke="#333333" stroke-width="2" stroke-miterlimit="10"/>
</svg>
